<svg width="25" height="27" viewBox="0 0 25 27" fill="none" xmlns="http://www.w3.org/2000/svg">
<path fill-rule="evenodd" clip-rule="evenodd" d="M3.29295 4.77434L11.2908 1.21975C12.325 0.760082 13.5056 0.760082 14.5399 1.21975L22.5179 4.76553C23.9736 5.41251 24.921 6.86768 24.8461 8.45891C24.4203 17.5022 22.016 21.2393 14.9895 25.8542C13.7332 26.6792 12.0987 26.6774 10.8421 25.8528C3.8471 21.2625 1.33938 17.5894 0.965995 8.43771C0.901504 6.85706 1.84733 5.41684 3.29295 4.77434ZM17.4798 11.6583C17.7525 11.3465 17.7209 10.8727 17.4092 10.6C17.0975 10.3272 16.6237 10.3588 16.3509 10.6705L12.3143 15.2837C12.2262 15.3844 12.0745 15.3979 11.97 15.3143L9.38385 13.2454C9.06041 12.9867 8.58844 13.0391 8.32968 13.3625C8.07092 13.686 8.12336 14.158 8.44681 14.4167L11.033 16.4856C11.7643 17.0707 12.8265 16.9763 13.4432 16.2715L17.4798 11.6583Z" fill="white"/>
<path d="M8.91602 13.8307L11.5022 15.8997C11.92 16.234 12.527 16.18 12.8794 15.7773L16.916 11.1641" stroke="#1C3F74" stroke-width="1.5" stroke-linecap="round" stroke-linejoin="round"/>
</svg>
