<svg width="15" height="16" viewBox="0 0 15 16" fill="none" xmlns="http://www.w3.org/2000/svg">
<path d="M1.875 5.1875C1.875 3.80679 2.99429 2.6875 4.375 2.6875H10.625C12.0057 2.6875 13.125 3.80679 13.125 5.1875V6.125V11.75C13.125 13.1307 12.0057 14.25 10.625 14.25H4.375C2.99429 14.25 1.875 13.1307 1.875 11.75V6.125V5.1875Z" fill="#1C3F74"/>
<path d="M1.675 6.125C1.675 6.23546 1.76454 6.325 1.875 6.325H13.125C13.2355 6.325 13.325 6.23546 13.325 6.125V5.1875C13.325 3.69633 12.1162 2.4875 10.625 2.4875H4.375C2.88383 2.4875 1.675 3.69633 1.675 5.1875V6.125Z" fill="#1C3F74" stroke="white" stroke-width="0.4" stroke-linecap="round"/>
<path fill-rule="evenodd" clip-rule="evenodd" d="M5 1.28125C5.25888 1.28125 5.46875 1.49112 5.46875 1.75V3.625C5.46875 3.88388 5.25888 4.09375 5 4.09375C4.74112 4.09375 4.53125 3.88388 4.53125 3.625V1.75C4.53125 1.49112 4.74112 1.28125 5 1.28125ZM10 1.28125C10.2589 1.28125 10.4688 1.49112 10.4688 1.75V3.625C10.4688 3.88388 10.2589 4.09375 10 4.09375C9.74112 4.09375 9.53125 3.88388 9.53125 3.625V1.75C9.53125 1.49112 9.74112 1.28125 10 1.28125Z" fill="#1C3F74"/>
<path fill-rule="evenodd" clip-rule="evenodd" d="M9.68369 8.27224C9.87852 8.44271 9.89826 8.73885 9.72779 8.93368L7.9341 10.9836C7.54866 11.4241 6.88476 11.4831 6.4277 11.1174L5.33219 10.241C5.13004 10.0793 5.09726 9.78433 5.25898 9.58218C5.42071 9.38003 5.71569 9.34725 5.91784 9.50897L7.01336 10.3854C7.07865 10.4376 7.17349 10.4292 7.22856 10.3663L9.02225 8.31633C9.19272 8.1215 9.48886 8.10176 9.68369 8.27224Z" fill="white"/>
</svg>
