<svg width="16" height="16" viewBox="0 0 16 16" fill="none" xmlns="http://www.w3.org/2000/svg">
<path d="M14 12.6667V11.5694C14 11.0242 13.6681 10.5339 13.1619 10.3314L11.8058 9.78897C11.1619 9.53143 10.4281 9.81041 10.118 10.4307L10 10.6667C10 10.6667 8.33333 10.3333 7 9C5.66667 7.66667 5.33333 6 5.33333 6L5.56934 5.88199C6.18959 5.57187 6.46857 4.83809 6.21103 4.19424L5.66859 2.83815C5.46611 2.33194 4.97583 2 4.43062 2H3.33333C2.59695 2 2 2.59695 2 3.33333C2 9.22437 6.77563 14 12.6667 14C13.403 14 14 13.403 14 12.6667Z" fill="#1C3F74"/>
<path fill-rule="evenodd" clip-rule="evenodd" d="M8.16602 4.66667C8.16602 4.39052 8.38987 4.16667 8.66602 4.16667C9.08187 4.16667 9.49365 4.24857 9.87785 4.40771C10.262 4.56685 10.6111 4.80011 10.9052 5.09416C11.1992 5.38821 11.4325 5.73731 11.5916 6.1215C11.7508 6.5057 11.8327 6.91748 11.8327 7.33333C11.8327 7.60948 11.6088 7.83333 11.3327 7.83333C11.0565 7.83333 10.8327 7.60948 10.8327 7.33333C10.8327 7.0488 10.7766 6.76706 10.6678 6.50419C10.5589 6.24131 10.3993 6.00246 10.1981 5.80127C9.99689 5.60008 9.75804 5.44048 9.49516 5.33159C9.23229 5.22271 8.95055 5.16667 8.66602 5.16667C8.38987 5.16667 8.16602 4.94281 8.16602 4.66667Z" fill="#1C3F74"/>
<path fill-rule="evenodd" clip-rule="evenodd" d="M8.16602 2C8.16602 1.72386 8.38987 1.5 8.66602 1.5C9.43206 1.5 10.1906 1.65088 10.8983 1.94404C11.6061 2.23719 12.2491 2.66687 12.7908 3.20854C13.3325 3.75022 13.7622 4.39328 14.0553 5.10101C14.3485 5.80875 14.4993 6.56729 14.4993 7.33333C14.4993 7.60948 14.2755 7.83333 13.9993 7.83333C13.7232 7.83333 13.4993 7.60948 13.4993 7.33333C13.4993 6.69861 13.3743 6.0701 13.1314 5.4837C12.8885 4.89729 12.5325 4.36447 12.0837 3.91565C11.6349 3.46683 11.1021 3.11081 10.5157 2.86792C9.92925 2.62502 9.30074 2.5 8.66602 2.5C8.38987 2.5 8.16602 2.27614 8.16602 2Z" fill="#1C3F74"/>
</svg>
