<svg width="26" height="25" viewBox="0 0 26 25" fill="none" xmlns="http://www.w3.org/2000/svg">
<path fill-rule="evenodd" clip-rule="evenodd" d="M24 20.1388V22.3333C24 23.8061 22.8061 25 21.3333 25C9.55126 25 0 15.4487 0 3.66667C0 2.19391 1.19391 1 2.66667 1H4.86125C5.95166 1 6.93221 1.66387 7.33718 2.67629L8.42206 5.38848C8.93714 6.67618 8.37917 8.14375 7.13869 8.76399L6.66667 9C6.66667 9 7.33333 12.3333 10 15C12.6667 17.6667 16 18.3333 16 18.3333L16.236 17.8613C16.8563 16.6208 18.3238 16.0629 19.6115 16.5779L22.3237 17.6628C23.3361 18.0678 24 19.0483 24 20.1388ZM17.251 7.73044L15.2345 5.20974C14.8669 4.7503 14.6667 4.17946 14.6667 3.59109V3.47487C14.6667 2.10804 15.7747 1 17.1415 1C17.7979 1 18.4274 1.26074 18.8915 1.72487L19.3333 2.16667L19.7751 1.72487C20.2393 1.26074 20.8687 1 21.5251 1C22.892 1 24 2.10804 24 3.47487V3.59109C24 4.17946 23.7998 4.7503 23.4322 5.20974L21.4156 7.73044C20.3481 9.06486 18.3186 9.06485 17.251 7.73044Z" fill="white"/>
<path d="M14.6844 4.90058L17.1151 7.83495C18.4018 9.38835 20.8482 9.38835 22.1349 7.83495L24.5656 4.90058C25.0086 4.36575 25.25 3.70123 25.25 3.01631V2.88102C25.25 1.28988 23.9144 0 22.2669 0C21.4757 0 20.717 0.303535 20.1575 0.84383L19.625 1.35812L19.0925 0.84383C18.533 0.303535 17.7743 0 16.9831 0C15.3356 0 14 1.28988 14 2.88102V3.01631C14 3.70123 14.2414 4.36575 14.6844 4.90058Z" fill="white"/>
</svg>
