<svg width="28" height="28" viewBox="0 0 28 28" fill="none" xmlns="http://www.w3.org/2000/svg">
<path d="M26.625 24.7083V22.308C26.625 21.1154 25.8989 20.0429 24.7916 19.6L21.8251 18.4134C20.4167 17.85 18.8115 18.4603 18.1331 19.8171L17.875 20.3333C17.875 20.3333 14.2292 19.6042 11.3125 16.6875C8.39583 13.7708 7.66667 10.125 7.66667 10.125L8.18294 9.86686C9.53972 9.18847 10.15 7.58332 9.58663 6.1749L8.40004 3.20845C7.95711 2.10111 6.88463 1.375 5.69199 1.375H3.29167C1.68084 1.375 0.375 2.68084 0.375 4.29167C0.375 17.1783 10.8217 27.625 23.7083 27.625C25.3192 27.625 26.625 26.3192 26.625 24.7083Z" fill="#1C3F74"/>
<path fill-rule="evenodd" clip-rule="evenodd" d="M13.8652 7.20833C13.8652 6.60427 14.3549 6.11458 14.959 6.11458C15.8687 6.11458 16.7694 6.29376 17.6099 6.64188C18.4503 6.99 19.2139 7.50024 19.8572 8.14348C20.5004 8.78672 21.0107 9.55035 21.3588 10.3908C21.7069 11.2312 21.8861 12.132 21.8861 13.0417C21.8861 13.6457 21.3964 14.1354 20.7923 14.1354C20.1883 14.1354 19.6986 13.6457 19.6986 13.0417C19.6986 12.4193 19.576 11.8029 19.3378 11.2279C19.0996 10.6529 18.7505 10.1304 18.3104 9.69028C17.8703 9.25016 17.3478 8.90105 16.7727 8.66286C16.1977 8.42468 15.5814 8.30208 14.959 8.30208C14.3549 8.30208 13.8652 7.8124 13.8652 7.20833Z" fill="#1C3F74"/>
<path fill-rule="evenodd" clip-rule="evenodd" d="M13.8652 1.375C13.8652 0.770939 14.3549 0.28125 14.959 0.28125C16.6347 0.28125 18.294 0.611308 19.8422 1.25258C21.3904 1.89385 22.797 2.83378 23.982 4.01869C25.1669 5.2036 26.1068 6.6103 26.7481 8.15847C27.3893 9.70663 27.7194 11.3659 27.7194 13.0417C27.7194 13.6457 27.2297 14.1354 26.6257 14.1354C26.0216 14.1354 25.5319 13.6457 25.5319 13.0417C25.5319 11.6532 25.2584 10.2784 24.7271 8.99559C24.1957 7.71282 23.417 6.54727 22.4352 5.56549C21.4534 4.5837 20.2878 3.8049 19.0051 3.27357C17.7223 2.74223 16.3474 2.46875 14.959 2.46875C14.3549 2.46875 13.8652 1.97906 13.8652 1.375Z" fill="#1C3F74"/>
</svg>
