<svg width="32" height="29" viewBox="0 0 32 29" fill="none" xmlns="http://www.w3.org/2000/svg">
<path d="M0.710938 7.04916C0.710938 3.64897 3.46733 0.892578 6.86752 0.892578H25.3373C28.7375 0.892578 31.4939 3.64897 31.4939 7.04916V22.4406C31.4939 25.8408 28.7375 28.5972 25.3373 28.5972H6.86752C3.46733 28.5972 0.710938 25.8408 0.710938 22.4406V7.04916Z" fill="#1C3F74"/>
<path d="M0.710938 7.04883H31.4939V13.2054H0.710938V7.04883Z" fill="white"/>
<path fill-rule="evenodd" clip-rule="evenodd" d="M5.71289 22.4405C5.71289 21.803 6.22971 21.2861 6.86725 21.2861H9.94554C10.5831 21.2861 11.0999 21.803 11.0999 22.4405C11.0999 23.078 10.5831 23.5949 9.94554 23.5949H6.86725C6.22971 23.5949 5.71289 23.078 5.71289 22.4405Z" fill="#1C3F74"/>
</svg>
