<svg width="40" height="40" viewBox="0 0 40 40" fill="none" xmlns="http://www.w3.org/2000/svg">
<path fill-rule="evenodd" clip-rule="evenodd" d="M29.0317 21.3645C29.5688 21.7856 30.058 22.2661 30.4887 22.7964C34.0909 21.526 36.6672 18.1418 36.6672 14.1667C36.6672 9.10406 32.4885 5 27.3339 5C23.4816 5 20.1744 7.29222 18.7491 10.5637C18.0941 10.3524 17.3942 10.2381 16.6672 10.2381C13.8548 10.2381 11.4492 11.9485 10.4698 14.3679C11.1833 14.2356 11.918 14.1667 12.6672 14.1667C16.7954 14.1667 20.4449 16.2542 22.5644 19.4363C22.8184 19.4154 23.0751 19.4048 23.3339 19.4048C25.4802 19.4048 27.4645 20.136 29.0317 21.3645ZM12.6673 35C7.51266 35 3.33398 30.8959 3.33398 25.8333C3.33398 21.679 6.14782 18.1701 10.0058 17.0448C10.8492 16.7988 11.7426 16.6667 12.6673 16.6667C16.5196 16.6667 19.8268 18.9589 21.2521 22.2304C21.9071 22.0191 22.607 21.9048 23.334 21.9048C24.9054 21.9048 26.3499 22.4388 27.4895 23.3321C29.02 24.5318 30.0007 26.3796 30.0007 28.4524C30.0007 32.0685 27.0159 35 23.334 35H12.6673Z" fill="#1C3F74"/>
<path fill-rule="evenodd" clip-rule="evenodd" d="M30.4896 22.7964C30.0589 22.2661 29.5697 21.7856 29.0326 21.3645C27.4654 20.136 25.4811 19.4048 23.3348 19.4048C23.0759 19.4048 22.8193 19.4154 22.5653 19.4363C20.4458 16.2542 16.7963 14.1667 12.6681 14.1667C11.9189 14.1667 11.1842 14.2356 10.4707 14.3679C11.4501 11.9485 13.8557 10.2381 16.6681 10.2381C17.3951 10.2381 18.095 10.3524 18.75 10.5637C20.1753 7.29222 23.4825 5 27.3348 5C32.4894 5 36.6681 9.10406 36.6681 14.1667C36.6681 18.1418 34.0918 21.526 30.4896 22.7964Z" fill="#1C3F74"/>
</svg>
