<svg width="31" height="27" viewBox="0 0 31 27" fill="none" xmlns="http://www.w3.org/2000/svg">
<path fill-rule="evenodd" clip-rule="evenodd" d="M23.4015 14.694C23.8715 15.0624 24.2995 15.4829 24.6764 15.9469C27.8283 14.8353 30.0826 11.8741 30.0826 8.39583C30.0826 3.96605 26.4262 0.375 21.9159 0.375C18.5451 0.375 15.6513 2.38069 14.4043 5.24323C13.8311 5.05834 13.2187 4.95833 12.5826 4.95833C10.1218 4.95833 8.01682 6.4549 7.15986 8.57189C7.78419 8.45615 8.42707 8.39583 9.08258 8.39583C12.6947 8.39583 15.8881 10.2224 17.7426 13.0068C17.9649 12.9885 18.1895 12.9792 18.4159 12.9792C20.2939 12.9792 22.0302 13.619 23.4015 14.694ZM9.08268 26.625C4.57236 26.625 0.916016 23.0339 0.916016 18.6042C0.916016 14.9691 3.37812 11.8988 6.75383 10.9142C7.49184 10.6989 8.27352 10.5833 9.08268 10.5833C12.4535 10.5833 15.3473 12.589 16.5943 15.4516C17.1675 15.2667 17.7799 15.1667 18.416 15.1667C19.791 15.1667 21.0549 15.6339 22.0521 16.4156C23.3913 17.4653 24.2493 19.0822 24.2493 20.8958C24.2493 24.06 21.6377 26.625 18.416 26.625H9.08268Z" fill="#1C3F74"/>
<path fill-rule="evenodd" clip-rule="evenodd" d="M24.6767 15.9469C24.2998 15.4829 23.8718 15.0624 23.4018 14.694C22.0305 13.619 20.2942 12.9792 18.4162 12.9792C18.1897 12.9792 17.9652 12.9885 17.7429 13.0068C15.8884 10.2224 12.695 8.39583 9.08288 8.39583C8.42736 8.39583 7.78449 8.45615 7.16016 8.57189C8.01712 6.4549 10.122 4.95833 12.5829 4.95833C13.219 4.95833 13.8314 5.05834 14.4045 5.24323C15.6516 2.38069 18.5454 0.375 21.9162 0.375C26.4265 0.375 30.0829 3.96605 30.0829 8.39583C30.0829 11.8741 27.8286 14.8353 24.6767 15.9469Z" fill="#1C3F74"/>
</svg>
