<svg width="31" height="31" viewBox="0 0 31 31" fill="none" xmlns="http://www.w3.org/2000/svg">
<path fill-rule="evenodd" clip-rule="evenodd" d="M0.916016 5.29199C0.916016 2.87575 2.87477 0.916992 5.29102 0.916992H25.7077C28.1239 0.916992 30.0827 2.87575 30.0827 5.29199V17.3232H0.916016V5.29199ZM0.916016 19.5107H30.0827V19.8753C30.0827 22.2916 28.1239 24.2503 25.7077 24.2503H16.5931V27.8962H19.8744C20.4784 27.8962 20.9681 28.3859 20.9681 28.9899C20.9681 29.594 20.4784 30.0837 19.8744 30.0837H11.1243C10.5203 30.0837 10.0306 29.594 10.0306 28.9899C10.0306 28.3859 10.5203 27.8962 11.1243 27.8962H14.4056V24.2503H5.29102C2.87477 24.2503 0.916016 22.2916 0.916016 19.8753V19.5107Z" fill="#1C3F74"/>
</svg>
