<svg width="31" height="31" viewBox="0 0 31 31" fill="none" xmlns="http://www.w3.org/2000/svg">
<path fill-rule="evenodd" clip-rule="evenodd" d="M12.3495 5.38318C11.8254 6.70427 11.3988 8.30899 11.1105 10.1105C12.5052 9.98279 13.9788 9.91479 15.4994 9.91479C17.0199 9.91479 18.4935 9.98279 19.8883 10.1105C19.6 8.30899 19.1734 6.70427 18.6492 5.38318C18.1454 4.1134 17.5732 3.16079 16.9946 2.5439C16.4181 1.92936 15.9125 1.72296 15.4994 1.72296C15.0863 1.72296 14.5807 1.92936 14.0042 2.5439C13.4255 3.16079 12.8533 4.1134 12.3495 5.38318ZM10.292 4.55344C9.63798 6.20183 9.13615 8.18751 8.82857 10.3827C7.31453 10.6078 5.93284 10.9082 4.73447 11.2706C3.34011 11.6923 2.13099 12.2167 1.24573 12.8497C1.13389 12.9297 1.0235 13.0142 0.916082 13.1033C1.89323 7.01408 6.53226 2.16182 12.4819 0.916994C12.4524 0.947269 12.4231 0.977879 12.3941 1.00881C11.5588 1.89929 10.8576 3.12789 10.292 4.55344ZM18.5168 0.916992C18.5464 0.947268 18.5756 0.977878 18.6046 1.00881C19.44 1.89929 20.1412 3.12789 20.7068 4.55344C21.3608 6.20183 21.8626 8.18751 22.1702 10.3827C23.6842 10.6078 25.0659 10.9082 26.2643 11.2706C27.6586 11.6923 28.8678 12.2167 29.753 12.8497C29.8649 12.9297 29.9753 13.0142 30.0827 13.1033C29.1055 7.01408 24.4665 2.16182 18.5168 0.916992ZM30.0828 17.8969C29.9753 17.986 29.8649 18.0705 29.753 18.1505C28.8678 18.7836 27.6586 19.3079 26.2643 19.7296C25.0659 20.0921 23.6842 20.3924 22.1702 20.6176C21.8626 22.8127 21.3608 24.7984 20.7068 26.4468C20.1412 27.8724 19.44 29.101 18.6046 29.9914C18.5755 30.0225 18.5461 30.0533 18.5164 30.0837C24.4664 28.839 29.1057 23.9865 30.0828 17.8969ZM12.4824 30.0837C12.4527 30.0533 12.4233 30.0225 12.3941 29.9914C11.5588 29.101 10.8576 27.8724 10.292 26.4468C9.63798 24.7984 9.13615 22.8127 8.82857 20.6176C7.31453 20.3924 5.93284 20.0921 4.73447 19.7296C3.34011 19.3079 2.13099 18.7836 1.24573 18.1505C1.13387 18.0705 1.02345 17.986 0.916016 17.8969C1.89305 23.9865 6.53235 28.839 12.4824 30.0837ZM5.37125 17.5897C6.31112 17.874 7.39251 18.1204 8.58441 18.3181C8.51694 17.402 8.48191 16.4601 8.48191 15.5001C8.48191 14.5402 8.51694 13.5982 8.58441 12.6821C7.39251 12.8799 6.31112 13.1263 5.37125 13.4105C4.09211 13.7974 3.13769 14.2359 2.52778 14.672C1.88909 15.1287 1.83379 15.4248 1.83379 15.5001C1.83379 15.5755 1.88909 15.8715 2.52778 16.3282C3.13769 16.7644 4.09211 17.2028 5.37125 17.5897ZM10.698 15.5001C10.698 16.5743 10.7444 17.6175 10.8318 18.618C12.2885 18.7686 13.8585 18.8513 15.4994 18.8513C17.1402 18.8513 18.7102 18.7686 20.167 18.618C20.2543 17.6175 20.3008 16.5743 20.3008 15.5001C20.3008 14.4259 20.2543 13.3827 20.167 12.3822C18.7102 12.2316 17.1402 12.1489 15.4994 12.1489C13.8585 12.1489 12.2885 12.2316 10.8318 12.3822C10.7444 13.3827 10.698 14.4259 10.698 15.5001ZM12.3495 25.6171C11.8254 24.296 11.3988 22.6913 11.1105 20.8897C12.5052 21.0175 13.9788 21.0855 15.4994 21.0855C17.0199 21.0855 18.4935 21.0175 19.8883 20.8897C19.6 22.6913 19.1734 24.296 18.6492 25.6171C18.1454 26.8868 17.5732 27.8395 16.9946 28.4564C16.4181 29.0709 15.9125 29.2773 15.4994 29.2773C15.0863 29.2773 14.5807 29.0709 14.0042 28.4564C13.4255 27.8395 12.8533 26.8868 12.3495 25.6171ZM25.6275 17.5897C24.6876 17.874 23.6062 18.1204 22.4144 18.3181C22.4818 17.402 22.5168 16.4601 22.5168 15.5001C22.5168 14.5402 22.4818 13.5982 22.4144 12.6821C23.6062 12.8799 24.6876 13.1263 25.6275 13.4105C26.9066 13.7974 27.8611 14.2359 28.471 14.672C29.1097 15.1287 29.165 15.4248 29.165 15.5001C29.165 15.5755 29.1097 15.8715 28.471 16.3282C27.8611 16.7644 26.9066 17.2028 25.6275 17.5897Z" fill="#1C3F74"/>
</svg>
