<svg width="15" height="16" viewBox="0 0 15 16" fill="none" xmlns="http://www.w3.org/2000/svg">
<path d="M11.25 2.375H3.75C2.36929 2.375 1.25 3.49429 1.25 4.875V11.125C1.25 12.5057 2.36929 13.625 3.75 13.625H11.25C12.6307 13.625 13.75 12.5057 13.75 11.125V4.875C13.75 3.49429 12.6307 2.375 11.25 2.375Z" fill="#1C3F74"/>
<path fill-rule="evenodd" clip-rule="evenodd" d="M3.36003 5.24003C3.50363 5.02463 3.79466 4.96642 4.01007 5.11003L6.37332 6.68553C7.05561 7.14039 7.94449 7.14039 8.62678 6.68553L10.99 5.11003C11.2054 4.96642 11.4965 5.02463 11.6401 5.24003C11.7837 5.45544 11.7255 5.74647 11.5101 5.89007L9.14682 7.46557C8.14961 8.13037 6.85049 8.13037 5.85328 7.46557L3.49003 5.89007C3.27463 5.74647 3.21642 5.45544 3.36003 5.24003Z" fill="white"/>
<path fill-rule="evenodd" clip-rule="evenodd" d="M0.78125 9.875C0.78125 9.61612 0.991117 9.40625 1.25 9.40625H5C5.25888 9.40625 5.46875 9.61612 5.46875 9.875C5.46875 10.1339 5.25888 10.3438 5 10.3438H1.25C0.991117 10.3438 0.78125 10.1339 0.78125 9.875Z" fill="white"/>
<path fill-rule="evenodd" clip-rule="evenodd" d="M0.78125 11.75C0.78125 11.4911 0.991117 11.2812 1.25 11.2812H5C5.25888 11.2812 5.46875 11.4911 5.46875 11.75C5.46875 12.0089 5.25888 12.2188 5 12.2188H1.25C0.991117 12.2188 0.78125 12.0089 0.78125 11.75Z" fill="white"/>
</svg>
