<svg width="16" height="16" viewBox="0 0 16 16" fill="none" xmlns="http://www.w3.org/2000/svg">
<path d="M4 0H12C14.2091 0 16 1.79086 16 4V12C16 14.2091 14.2091 16 12 16H4C1.79086 16 0 14.2091 0 12V4C0 1.79086 1.79086 0 4 0Z" fill="#1C3F74"/>
<path fill-rule="evenodd" clip-rule="evenodd" d="M7.16437 4L11.0044 4C11.2695 4 11.4844 4.2149 11.4844 4.48L11.4844 8.32C11.4844 8.58509 11.2695 8.8 11.0044 8.8C10.7393 8.8 10.5244 8.58509 10.5244 8.32L10.5244 5.63882L4.30379 11.8594C4.11633 12.0469 3.81242 12.0469 3.62496 11.8594C3.43751 11.672 3.43751 11.368 3.62496 11.1806L9.84555 4.96L7.16437 4.96C6.89928 4.96 6.68437 4.7451 6.68437 4.48C6.68437 4.2149 6.89928 4 7.16437 4Z" fill="white"/>
</svg>
