<svg width="27" height="29" viewBox="0 0 27 29" fill="none" xmlns="http://www.w3.org/2000/svg">
<path d="M11.1314 0.969563L3.84295 4.20889C1.73475 5.14587 0.343517 7.24418 0.477669 9.54732C1.00213 18.5514 3.63887 22.5153 10.4903 27.1538C12.3053 28.3826 14.6978 28.3856 16.5115 27.1549C23.384 22.4911 25.9264 18.4711 26.4969 9.5785C26.6457 7.26014 25.2522 5.13956 23.1293 4.19605L15.8697 0.969562C14.3614 0.299208 12.6397 0.299209 11.1314 0.969563Z" fill="#1C3F74"/>
<path fill-rule="evenodd" clip-rule="evenodd" d="M18.5953 10.7599C19.0499 11.1577 19.0959 11.8487 18.6982 12.3033L14.5129 17.0864C13.6135 18.1143 12.0644 18.2519 10.998 17.3987L8.44178 15.3538C7.97009 14.9764 7.89361 14.2881 8.27096 13.8164C8.64832 13.3447 9.33661 13.2683 9.8083 13.6456L12.3645 15.6906C12.5169 15.8125 12.7382 15.7928 12.8666 15.646L17.0519 10.8628C17.4497 10.4082 18.1407 10.3621 18.5953 10.7599Z" fill="white"/>
</svg>
