<svg width="30" height="29" viewBox="0 0 30 29" fill="none" xmlns="http://www.w3.org/2000/svg">
<path fill-rule="evenodd" clip-rule="evenodd" d="M14.9993 19.3327C20.154 19.3327 24.3327 15.154 24.3327 9.99935C24.3327 4.84469 20.154 0.666016 14.9993 0.666016C9.84469 0.666016 5.66602 4.84469 5.66602 9.99935C5.66602 15.154 9.84469 19.3327 14.9993 19.3327ZM2.66602 9.99935C2.66602 9.44706 2.2183 8.99935 1.66602 8.99935C1.11373 8.99935 0.666016 9.44706 0.666016 9.99935C0.666016 17.5793 6.54981 23.785 13.9993 24.2983V26.3327H10.9993C10.4471 26.3327 9.99935 26.7804 9.99935 27.3327C9.99935 27.885 10.4471 28.3327 10.9993 28.3327H18.9993C19.5516 28.3327 19.9993 27.885 19.9993 27.3327C19.9993 26.7804 19.5516 26.3327 18.9993 26.3327H15.9993V24.2983C23.4489 23.785 29.3327 17.5793 29.3327 9.99935C29.3327 9.44706 28.885 8.99935 28.3327 8.99935C27.7804 8.99935 27.3327 9.44706 27.3327 9.99935C27.3327 16.8109 21.8109 22.3327 14.9993 22.3327C8.18784 22.3327 2.66602 16.8109 2.66602 9.99935Z" fill="white"/>
<circle cx="18.5" cy="6.5" r="2.5" fill="white"/>
</svg>
