<svg width="18" height="16" viewBox="0 0 18 16" fill="none" xmlns="http://www.w3.org/2000/svg">
<path d="M12.2863 0C10.1825 0 8.47695 1.79086 8.47695 4C8.47695 4.33382 8.5159 4.65809 8.58927 4.96808C6.56635 4.96808 3.51939 4.55908 0.974682 2.00961C0.636299 1.67059 0.0123287 1.89726 0.0358001 2.37567C0.412925 10.0627 3.70501 12.3049 5.40034 12.4444C4.3056 13.5257 2.71534 14.3791 1.11513 14.7622C0.692808 14.8633 0.58848 15.3256 1.00144 15.4599C2.14647 15.8323 3.78541 15.9758 4.66759 16C10.9084 16 15.9809 10.7471 16.0938 4.22229C16.9131 3.68945 17.438 2.5325 17.7329 1.71291C17.8047 1.5133 17.4775 1.28073 17.2817 1.36226C16.6696 1.61708 15.8926 1.67749 15.2306 1.46181C14.532 0.569266 13.4725 0 12.2863 0Z" fill="#E7EDFA"/>
</svg>
